<?xml version="1.0" standalone="no"?>
<!DOCTYPE svg PUBLIC "-//W3C//DTD SVG 20010904//EN"
 "http://www.w3.org/TR/2001/REC-SVG-20010904/DTD/svg10.dtd">
<svg version="1.0" xmlns="http://www.w3.org/2000/svg"
 width="270.000000pt" height="270.000000pt" viewBox="0 0 270.000000 270.000000"
 preserveAspectRatio="xMidYMid meet">
<metadata>
Created by potrace 1.14, written by Peter Selinger 2001-2017
</metadata>
<g transform="translate(0.000000,270.000000) scale(0.100000,-0.100000)"
fill="#000000" stroke="none">
<path d="M930 2019 c-99 -41 -126 -165 -54 -240 l27 -28 -44 -96 -44 -95 -43
0 c-112 0 -179 -102 -134 -204 26 -57 70 -86 133 -86 l47 0 26 -71 27 -72 -40
-34 c-40 -33 -66 -91 -59 -130 2 -12 -16 -24 -70 -45 l-74 -28 -26 28 c-57 61
-145 65 -207 11 -119 -105 -8 -296 145 -250 63 19 90 62 103 161 1 8 33 26 72
41 l70 27 30 -28 c57 -53 105 -63 169 -36 30 13 70 52 78 78 4 10 187 -14 296
-39 17 -4 22 -1 22 15 0 20 -10 23 -241 62 -66 12 -67 12 -73 48 -9 54 -43 91
-105 112 l-54 18 -27 76 c-27 75 -27 76 -7 93 42 37 59 120 36 166 -6 12 -22
33 -34 47 l-23 25 42 93 42 94 50 2 c185 6 196 271 12 291 -23 3 -54 0 -68 -6z
m126 -63 c28 -28 34 -42 34 -76 0 -34 -6 -48 -34 -76 -40 -40 -83 -45 -132
-15 -93 57 -47 201 65 201 24 0 42 -9 67 -34z m-241 -440 c106 -45 73 -208
-42 -208 -98 0 -146 118 -75 184 43 41 65 45 117 24z m188 -466 c41 -46 38
-101 -8 -147 -33 -33 -39 -35 -81 -30 -54 6 -80 27 -95 77 -33 109 108 186
184 100z m-430 -160 c40 -45 38 -101 -7 -146 -38 -38 -77 -44 -126 -19 -107
55 -55 214 65 201 29 -3 48 -14 68 -36z"/>
<path d="M2330 1462 l0 -188 79 -2 c72 -1 83 1 110 24 60 50 66 171 11 226
-32 32 -92 39 -126 13 -31 -23 -34 -19 -34 50 0 58 -2 65 -20 65 -19 0 -20 -7
-20 -188z m169 22 c15 -19 21 -41 21 -74 0 -65 -28 -100 -80 -100 -67 0 -70 3
-70 91 0 75 1 79 28 93 42 23 78 20 101 -10z"/>
<path d="M193 1624 c-17 -9 -39 -31 -48 -50 -14 -29 -14 -37 -1 -68 17 -41 50
-60 130 -75 70 -13 86 -24 86 -62 0 -58 -92 -78 -179 -39 -54 25 -51 25 -51
-6 0 -38 54 -57 148 -52 69 3 76 6 103 36 63 70 24 153 -79 168 -26 3 -62 12
-79 20 -27 11 -33 18 -33 43 0 46 36 65 106 58 31 -3 66 -13 80 -22 24 -15 24
-15 24 14 0 26 -5 31 -37 40 -55 16 -133 13 -170 -5z"/>
<path d="M1570 1633 c0 -4 21 -88 46 -186 47 -175 48 -178 73 -175 25 3 28 10
61 146 19 78 37 142 40 142 3 0 21 -64 41 -142 33 -137 36 -143 61 -146 30 -4
23 -23 84 213 40 152 40 155 14 155 -21 0 -21 1 -65 -182 -16 -65 -31 -115
-34 -113 -2 3 -20 69 -40 147 -34 136 -37 143 -61 143 -24 0 -26 -7 -61 -150
-21 -82 -38 -148 -39 -145 0 3 -18 70 -38 150 -33 129 -39 145 -59 148 -13 2
-23 0 -23 -5z"/>
<path d="M472 1583 c2 -28 -1 -38 -12 -38 -21 0 -25 -33 -4 -37 15 -2 17 -13
15 -70 -3 -80 13 -144 39 -158 10 -5 36 -10 58 -10 31 0 41 4 45 20 4 17 0 20
-32 20 -54 0 -61 12 -61 112 l0 88 45 0 c36 0 45 3 45 18 0 14 -7 17 -45 14
l-45 -4 0 41 c0 37 -2 41 -26 41 -23 0 -25 -3 -22 -37z"/>
<path d="M956 1542 c-3 -3 -6 -65 -6 -139 l0 -133 25 0 c25 0 25 0 25 99 0
113 4 121 75 129 35 4 45 9 45 23 0 15 -7 19 -37 19 -21 0 -47 -7 -58 -16 -18
-13 -20 -13 -25 2 -6 17 -34 27 -44 16z"/>
<path d="M1140 1541 c0 -3 23 -61 51 -129 l52 -123 -21 -52 c-27 -65 -27 -69
0 -65 17 2 35 37 100 186 43 101 78 185 78 186 0 1 -10 2 -22 2 -21 0 -52 -55
-89 -158 -7 -21 -16 -38 -19 -38 -3 0 -24 44 -46 97 -32 80 -43 97 -61 98 -13
1 -23 -1 -23 -4z"/>
<path d="M2088 1534 c-37 -20 -59 -65 -60 -123 0 -93 48 -141 141 -141 70 0
101 14 101 45 0 25 -1 25 -30 10 -35 -18 -109 -19 -131 -2 -23 18 -41 56 -35
74 5 12 23 14 101 11 l95 -3 0 32 c0 71 -44 113 -117 113 -21 -1 -50 -7 -65
-16z m125 -46 c34 -40 23 -48 -63 -48 -44 0 -80 3 -80 8 0 15 33 54 54 62 29
13 68 3 89 -22z"/>
<path d="M1450 1510 c0 -27 3 -30 30 -30 27 0 30 3 30 30 0 27 -3 30 -30 30
-27 0 -30 -3 -30 -30z"/>
<path d="M1450 1305 c0 -32 2 -35 30 -35 28 0 30 3 30 35 0 32 -2 35 -30 35
-28 0 -30 -3 -30 -35z"/>
<path d="M1455 1045 c-5 -2 -22 -6 -37 -9 -22 -5 -28 -12 -28 -32 0 -21 3 -25
18 -18 32 14 92 16 107 4 27 -22 17 -57 -25 -91 -32 -26 -40 -39 -40 -66 0
-28 3 -33 24 -33 19 0 23 4 19 19 -3 13 3 26 18 38 59 47 69 62 69 101 0 27
-7 45 -22 59 -22 20 -81 36 -103 28z"/>
<path d="M1450 740 c0 -25 4 -30 25 -30 21 0 25 5 25 30 0 25 -4 30 -25 30
-21 0 -25 -5 -25 -30z"/>
</g>
</svg>
